<?xml version="1.0" standalone="no"?>
<!DOCTYPE svg PUBLIC "-//W3C//DTD SVG 20010904//EN"
 "http://www.w3.org/TR/2001/REC-SVG-20010904/DTD/svg10.dtd">
<svg version="1.0" xmlns="http://www.w3.org/2000/svg"
 width="300.000000pt" height="300.000000pt" viewBox="0 0 300.000000 300.000000"
 preserveAspectRatio="xMidYMid meet">

<g transform="translate(0.000000,300.000000) scale(0.100000,-0.100000)"
fill="#000000" stroke="none">
<path d="M0 1500 l0 -1500 1500 0 1500 0 0 1500 0 1500 -1500 0 -1500 0 0
-1500z m2396 1144 c47 -30 92 -58 99 -61 9 -3 22 11 34 36 28 54 55 60 117 26
34 -19 40 -25 22 -21 -22 5 -26 3 -22 -9 3 -8 10 -12 15 -9 21 13 -3 -130 -33
-193 -21 -46 -42 -61 -94 -73 -51 -12 -58 0 -35 60 12 31 15 48 7 39 -7 -8
-41 -84 -76 -169 -35 -85 -65 -157 -68 -160 -2 -3 -10 4 -18 14 -13 18 -15 16
-34 -27 -11 -26 -29 -68 -40 -93 -14 -31 -25 -44 -36 -42 -11 2 -38 53 -77
146 -33 78 -63 142 -66 142 -3 0 -33 -65 -65 -145 -43 -104 -64 -145 -76 -145
-15 0 -39 51 -206 436 -4 8 10 11 43 9 l48 -2 55 -126 c49 -112 70 -148 70
-118 0 6 23 64 51 129 39 93 54 119 67 117 9 -2 24 -4 33 -4 10 -1 33 -43 68
-126 29 -69 54 -125 56 -125 5 0 107 242 103 245 -2 1 -23 13 -47 25 -54 27
-125 93 -171 157 -18 26 -25 41 -14 32 12 -11 102 -31 255 -58 130 -22 239
-41 242 -41 3 0 10 14 16 30 8 25 7 30 -6 30 -9 0 -25 7 -35 17 -14 13 -18 13
-18 2 -1 -38 -13 -40 -121 -18 -57 11 -107 24 -111 28 -8 7 -28 101 -22 101 2
0 42 -25 90 -56z m-1550 -266 l219 -251 3 251 2 252 45 0 45 0 0 -330 0 -330
-44 0 -43 0 -214 247 -214 246 -3 -246 -2 -247 -45 0 -45 0 0 330 0 330 38 0
c38 0 43 -5 258 -252z m1291 246 c-3 -3 -12 -4 -19 -1 -8 3 -5 6 6 6 11 1 17
-2 13 -5z m60 -10 c-3 -3 -12 -4 -19 -1 -8 3 -5 6 6 6 11 1 17 -2 13 -5z m40
-10 c-3 -3 -12 -4 -19 -1 -8 3 -5 6 6 6 11 1 17 -2 13 -5z m60 -10 c-3 -3 -12
-4 -19 -1 -8 3 -5 6 6 6 11 1 17 -2 13 -5z m-707 -204 c59 -30 100 -102 100
-176 l0 -34 -150 0 c-145 0 -150 -1 -150 -20 0 -68 85 -128 163 -116 23 4 60
15 84 26 l43 19 0 -43 c0 -42 -2 -45 -42 -61 -180 -72 -337 22 -338 203 0 97
43 176 115 208 45 20 129 17 175 -6z m889 -129 c-6 -18 -13 -30 -15 -28 -2 2
1 18 7 36 6 18 13 30 15 28 2 -2 -1 -18 -7 -36z m-38 -98 c-12 -20 -14 -14 -5
12 4 9 9 14 11 11 3 -2 0 -13 -6 -23z m-20 -46 c-10 -9 -11 -8 -5 6 3 10 9 15
12 12 3 -3 0 -11 -7 -18z m-1646 -248 c22 -6 59 -17 83 -26 l42 -16 0 -57 c0
-31 -3 -59 -6 -62 -3 -4 -30 5 -59 18 -194 89 -382 21 -414 -150 -19 -102 23
-195 112 -246 45 -26 62 -30 129 -30 77 0 161 23 215 58 29 18 35 5 31 -69
l-3 -54 -65 -22 c-231 -77 -432 -9 -519 176 -22 47 -26 70 -26 142 0 79 3 92
35 154 65 126 179 194 325 195 44 0 98 -5 120 -11z m768 -23 c68 -35 140 -108
170 -174 34 -72 31 -207 -4 -283 -126 -269 -540 -278 -669 -15 -38 76 -48 160
-30 237 17 71 33 102 82 155 82 89 150 115 293 111 88 -2 107 -5 158 -31z
m518 -93 c57 -69 109 -128 114 -129 6 -2 57 56 114 127 l104 130 46 -3 46 -3
3 -343 2 -343 -55 3 -56 3 0 238 c0 130 -3 237 -7 236 -4 0 -45 -49 -92 -109
-58 -75 -91 -109 -105 -109 -13 0 -48 36 -105 109 -47 60 -87 109 -90 109 -3
1 -4 -97 -2 -216 2 -120 0 -228 -3 -241 -5 -21 -10 -23 -63 -20 l-57 3 -3 329
c-2 234 1 333 9 342 6 8 30 14 54 14 43 0 43 0 146 -127z m-6 -695 c33 -11 41
-18 43 -42 5 -42 -10 -51 -49 -30 -46 24 -137 24 -173 1 -76 -50 -88 -154 -24
-213 49 -44 98 -51 176 -25 34 12 64 21 67 21 4 0 5 -17 3 -37 -3 -31 -8 -38
-38 -49 -19 -7 -66 -13 -104 -13 -91 -1 -144 23 -185 86 -27 40 -31 55 -31
113 0 56 4 74 26 106 64 94 166 123 289 82z m-1295 -63 l62 -75 60 75 c54 67
63 75 94 75 l34 0 -2 -197 -3 -198 -32 -3 -33 -3 -1 143 0 143 -32 -39 c-18
-22 -44 -53 -59 -70 l-28 -31 -27 31 c-16 17 -43 48 -60 70 l-33 39 1 -140 1
-140 -36 -3 -36 -3 0 200 0 201 34 0 c29 0 41 -9 96 -75z m568 43 l-3 -33 -80
-1 -80 -2 0 -48 0 -49 75 -1 75 -2 3 -31 3 -31 -80 0 -81 0 0 -50 0 -50 85 0
85 0 0 -35 0 -36 -117 3 -118 3 -3 198 -2 197 120 0 121 0 -3 -32z m273 -6
c40 -44 41 -111 3 -149 -25 -25 -25 -25 -6 -47 29 -32 102 -143 102 -155 0 -6
-17 -11 -38 -11 -36 0 -39 3 -81 70 -44 73 -73 100 -103 100 -16 0 -18 -10
-18 -85 l0 -85 -35 0 -35 0 0 201 0 201 91 -4 c88 -3 92 -4 120 -36z m797 6
l-3 -33 -80 -1 -79 -2 0 -48 -1 -48 40 -2 c22 -1 57 -3 78 -3 34 -1 37 -3 37
-31 l0 -30 -75 0 c-64 0 -75 -2 -76 -17 0 -10 -1 -33 -2 -51 l-2 -32 83 0 82
0 0 -35 0 -36 -117 3 -118 3 -3 198 -2 197 120 0 121 0 -3 -32z m-1998 -503
c0 -6 -14 -8 -30 -7 -27 3 -30 1 -30 -25 0 -25 4 -28 30 -28 40 0 43 -19 3
-23 -27 -3 -33 -8 -33 -26 0 -19 4 -22 29 -18 16 2 31 -1 35 -6 3 -6 -12 -11
-39 -14 l-45 -3 0 81 0 81 40 -2 c22 -1 40 -5 40 -10z m236 1 c26 -20 13 -30
-20 -15 -23 11 -30 10 -54 -8 -31 -23 -38 -52 -22 -83 10 -19 19 -21 61 -18
57 4 69 -16 15 -26 -62 -12 -106 18 -106 74 0 70 73 114 126 76z m522 -77 c-2
-41 -7 -74 -13 -74 -11 0 -20 129 -10 153 13 35 26 -9 23 -79z m1206 71 c16
-16 0 -23 -24 -10 -40 21 -90 -12 -90 -59 0 -40 21 -54 75 -49 29 2 45 -1 45
-8 0 -16 -62 -26 -92 -15 -68 26 -72 115 -8 149 26 13 77 9 94 -8z m-945 -8
c6 -11 6 -24 -1 -36 -8 -15 -7 -21 6 -28 19 -11 21 -39 4 -56 -7 -7 -31 -12
-55 -12 l-43 0 0 75 0 75 40 0 c27 0 42 -5 49 -18z m281 -2 c0 -5 -4 -10 -10
-10 -5 0 -10 5 -10 10 0 6 5 10 10 10 6 0 10 -4 10 -10z m-464 -30 c8 0 14 -4
14 -10 0 -5 -7 -10 -15 -10 -11 0 -15 -11 -15 -36 0 -28 3 -35 15 -31 8 4 17
2 20 -2 7 -12 -21 -22 -40 -15 -10 4 -15 20 -15 45 0 23 -5 39 -12 39 -6 0 -3
9 8 21 10 11 20 16 22 10 2 -6 10 -11 18 -11z m-484 -17 c26 -24 23 -59 -8
-80 -24 -15 -29 -15 -53 -2 -32 18 -39 54 -15 80 21 23 51 24 76 2z m125 5
c15 -12 17 -84 3 -93 -6 -4 -10 12 -10 40 0 42 -2 46 -22 43 -19 -2 -24 -10
-26 -46 -4 -57 -22 -43 -22 17 0 47 1 48 32 49 18 0 38 -4 45 -10z m98 2 c3
-5 -3 -10 -14 -10 -27 0 -27 -12 -1 -28 23 -14 27 -47 6 -55 -18 -7 -56 3 -56
14 0 5 11 7 25 3 32 -8 32 6 -1 35 -20 18 -23 25 -14 37 14 16 46 19 55 4z
m65 -36 c0 -38 3 -45 18 -42 12 2 18 15 20 46 4 60 22 52 22 -10 0 -52 0 -53
-30 -52 -16 1 -34 2 -40 3 -5 0 -10 24 -10 51 0 28 5 50 10 50 6 0 10 -21 10
-46z m453 -40 c17 -17 37 7 37 46 0 22 5 40 10 40 6 0 10 -24 10 -52 0 -52 0
-53 -30 -52 -16 1 -34 2 -40 3 -5 0 -9 25 -9 54 l2 52 6 -42 c4 -24 10 -46 14
-49z m147 76 c0 -5 -9 -10 -20 -10 -25 0 -26 -17 -1 -25 11 -3 22 -13 25 -22
9 -23 -17 -47 -43 -38 -29 9 -26 23 4 17 32 -6 32 7 -2 34 -32 25 -26 54 12
54 14 0 25 -4 25 -10z m60 -40 c0 -27 -4 -50 -10 -50 -5 0 -10 23 -10 50 0 28
5 50 10 50 6 0 10 -22 10 -50z m120 30 c13 -24 13 -77 1 -85 -6 -3 -11 14 -13
37 -2 36 -7 44 -25 46 -21 3 -23 -1 -23 -37 0 -23 -4 -41 -10 -41 -5 0 -10 22
-10 48 0 49 0 49 35 50 25 1 38 -4 45 -18z m108 8 c23 -23 13 -38 -23 -38 -19
0 -35 -4 -35 -9 0 -16 30 -33 50 -28 11 3 20 1 20 -4 0 -5 -4 -9 -9 -9 -5 0
-16 -3 -24 -6 -19 -7 -57 30 -57 55 0 40 51 66 78 39z m102 2 c0 -5 -9 -10
-20 -10 -26 0 -25 -8 5 -32 30 -23 31 -34 6 -48 -21 -11 -51 -4 -51 12 0 5 5
6 10 3 6 -4 18 -4 28 0 14 5 12 10 -13 29 -19 15 -26 28 -22 39 7 18 57 24 57
7z m95 0 c3 -5 -3 -10 -14 -10 -24 0 -28 -15 -7 -23 8 -3 20 -15 25 -26 9 -16
8 -22 -8 -31 -20 -10 -51 -4 -51 10 0 5 8 6 19 3 30 -8 35 16 7 29 -25 11 -34
37 -19 51 10 10 41 8 48 -3z m347 -7 c25 -22 23 -59 -4 -77 -31 -22 -45 -20
-74 9 -21 21 -23 28 -13 47 22 42 59 50 91 21z m70 5 c7 -21 -3 -98 -13 -98
-5 0 -9 25 -9 55 0 51 12 73 22 43z m48 -2 c0 -9 -7 -12 -20 -9 -11 3 -17 9
-14 14 8 14 34 10 34 -5z m101 4 c28 -16 25 -65 -6 -86 -13 -8 -29 -13 -35 -9
-6 4 -10 -6 -10 -25 0 -21 -4 -30 -12 -28 -9 3 -14 31 -16 81 l-3 77 31 0 c17
0 40 -5 51 -10z m-2211 -40 c0 -5 -11 -10 -25 -10 -14 0 -25 5 -25 10 0 6 11
10 25 10 14 0 25 -4 25 -10z"/>
<path d="M2592 2608 c5 -15 28 -18 29 -3 0 6 -7 12 -17 13 -10 3 -15 -1 -12
-10z"/>
<path d="M1453 2325 c-29 -12 -63 -58 -63 -85 0 -6 38 -10 105 -10 99 0 105 1
105 20 0 32 -28 67 -62 79 -39 14 -46 13 -85 -4z"/>
<path d="M1305 1761 c-111 -29 -175 -113 -175 -230 0 -86 38 -155 110 -198 48
-30 62 -33 130 -33 64 0 82 4 125 29 62 35 100 89 115 158 21 98 -31 208 -121
254 -43 22 -138 32 -184 20z"/>
<path d="M1462 959 c3 -48 6 -54 26 -57 33 -5 72 24 72 52 0 30 -19 45 -65 53
l-36 6 3 -54z"/>
<path d="M1350 506 c0 -29 12 -39 34 -30 21 8 21 40 0 48 -27 10 -34 7 -34
-18z"/>
<path d="M1350 430 c0 -25 4 -30 24 -30 13 0 30 7 37 16 11 14 10 18 -6 30
-33 24 -55 18 -55 -16z"/>
<path d="M685 450 c-7 -23 10 -50 30 -50 20 0 37 27 30 50 -9 27 -51 27 -60 0z"/>
<path d="M1875 460 c-4 -6 5 -10 19 -10 14 0 26 5 26 10 0 6 -9 10 -19 10 -11
0 -23 -4 -26 -10z"/>
<path d="M2407 464 c-15 -16 -7 -53 14 -59 30 -10 58 19 43 43 -12 18 -45 28
-57 16z"/>
<path d="M2640 435 c0 -32 3 -36 23 -33 17 2 22 10 22 33 0 23 -5 31 -22 33
-20 3 -23 -1 -23 -33z"/>
</g>
</svg>
